<svg width="695" height="695" viewBox="0 0 695 695" fill="none" xmlns="http://www.w3.org/2000/svg">
<path d="M500.233 231.976C478.082 237.813 460.356 244.214 446.414 250.791C429.491 258.775 417.598 267.272 410.225 275.825C404.83 282.084 401.365 289.031 400.949 296.024C400.716 296.463 400.522 296.904 400.366 297.349C399.444 300.268 399.521 302.342 400.597 303.571C401.826 304.647 403.976 306.26 407.049 308.41C410.275 310.561 411.888 314.018 411.888 318.78C411.888 328.151 406.511 338.214 395.757 348.967C378.07 366.655 351.604 382.527 316.36 396.582C317.035 394.902 317.749 393.1 318.502 391.176L343.707 321.727C349.428 305.817 358.098 279.182 369.717 241.82C374.007 227.52 377.851 213.844 381.247 200.795C384.644 187.566 387.325 175.411 389.291 164.327C391.437 153.244 392.688 143.323 393.045 134.564C393.403 125.626 388.755 117.313 379.102 109.627C374.097 105.694 367.84 103.727 360.332 103.727C358.094 103.727 355.248 103.572 352.068 103.398C343.924 102.954 333.586 102.389 325.638 104.006C322.61 97.4785 318.644 91.1595 313.361 85.4739C304.28 75.7009 293.15 66.6367 282.158 59.0865C295.109 56.1854 308.382 54.1359 321.915 53.0001V77.9147H371.915V53C475.923 61.7289 564.58 124.425 609.791 212.995C593.654 214.731 578.655 216.697 564.731 218.856C545.405 219.696 528.552 222.342 511.81 227.771C507.954 229.022 504.105 230.419 500.233 231.976Z" fill="#F2A0A0"/>
<path d="M448.748 478.497C447.798 477.098 446.265 476.399 444.149 476.399C442.613 476.399 441 476.86 439.31 477.782L431.014 481.93C427.174 483.773 422.565 484.695 417.188 484.695C407.049 484.695 395.911 477.321 383.775 462.573C373.93 450.594 366.467 437.15 361.384 422.24C405.078 406.331 436.904 389.898 456.863 372.942C467.053 364.004 474.561 354.798 479.387 345.323C484.214 335.67 486.627 325.123 486.627 313.682C486.627 302.242 482.247 293.393 473.488 287.136C469.555 284.097 464.907 281.863 459.545 280.433C454.361 279.003 447.836 278.288 439.97 278.288C438.559 278.288 437.185 278.34 435.848 278.443C440.712 275.078 446.852 271.531 454.497 267.924C484.628 253.71 536.104 239.515 618.292 231.152C630.362 259.411 638.147 289.937 640.831 321.915H616.915V371.915H640.831C637.236 414.755 624.484 454.992 604.54 490.66C575.772 503.995 536.262 512.322 503.124 512.929C488.287 513.2 475.549 511.898 466.001 509.247C462.058 493.839 452.996 482.935 449.078 478.919C448.975 478.77 448.865 478.63 448.748 478.497Z" fill="#027353"/>
<path d="M555.286 220.376C538.001 223.263 522.469 226.454 508.552 229.863C509.735 229.451 510.917 229.053 512.101 228.669C525.956 224.176 539.894 221.597 555.286 220.376Z" fill="#F2A0A0"/>
<path d="M144.088 556.064C142.224 556 140.345 555.843 138.454 555.591C90.5348 507.72 59.0034 443.448 53 371.915H77.9147V321.915H53.0001C63.124 201.294 145.833 101.319 257.304 65.8144C270.913 73.5936 287.354 85.3158 299.483 98.3691C305.761 105.125 309.751 113.53 312.451 122.794C311.654 133.126 311.691 144.592 311.73 156.617C311.806 179.942 311.888 205.366 305.899 228.682C278.728 334.329 248.428 421.565 214.999 490.388L204.158 511.876C198.821 517.892 193.01 523.759 186.847 529.23C173.07 541.459 158.388 550.963 144.088 556.064Z" fill="#205A8C"/>
<path d="M141.694 556.878C140.98 556.824 140.264 556.757 139.546 556.676C139.77 556.897 139.994 557.118 140.219 557.339C140.71 557.191 141.202 557.037 141.694 556.878Z" fill="#F2A0A0"/>
<path d="M321.915 640.831C258.887 635.541 201.496 610.433 155.995 571.758C171.643 565.19 186.491 554.877 199.423 543.397C201.677 541.396 203.893 539.342 206.066 537.244L218.753 549.379C221.792 552.061 225.367 554.206 229.479 555.815C233.59 557.602 238.149 558.496 243.154 558.496C248.159 558.496 252.628 555.725 256.561 550.184C260.673 544.642 265.052 536.866 269.7 526.855L285.789 490.388C292.045 476.087 299.911 460.177 309.385 442.659C333.518 519.705 365.874 558.228 406.453 558.228C421.647 558.228 435.054 553.67 446.674 544.553C451.322 540.799 455.076 536.955 457.936 533.023C459.516 530.977 460.629 529.293 461.56 527.669C473.691 530.943 488.284 532.148 503.471 531.87C529.877 531.386 560.443 526.345 587.542 517.544C538.624 586.406 460.886 633.364 371.915 640.831V616.915H321.915V640.831Z" fill="#F24405"/>
<path fill-rule="evenodd" clip-rule="evenodd" d="M347.5 695C539.419 695 695 539.419 695 347.5C695 155.581 539.419 0 347.5 0C155.581 0 0 155.581 0 347.5C0 539.419 155.581 695 347.5 695ZM330 627V659.518C171.011 650.742 43.7058 523.121 35.4282 364H68V330H35.4817C44.2393 171.344 171.344 44.2394 330 35.4817V68H364V35.4281C523.121 43.7056 650.742 171.011 659.518 330H627V364H659.572C651.277 523.455 523.455 651.277 364 659.572V627H330Z" fill="#F29F05"/>
</svg>
